<svg width="134" height="24" viewBox="0 0 134 24" fill="none" xmlns="http://www.w3.org/2000/svg">
<g clip-path="url(#clip0_2013_2550)">
<path fill-rule="evenodd" clip-rule="evenodd" d="M0 8.37209V17.3023H2.7907C3.08387 17.3023 3.37418 17.3601 3.64508 17.4723C3.9159 17.5845 4.16206 17.7489 4.36932 17.9562C4.57665 18.1635 4.74112 18.4097 4.85334 18.6805C4.96548 18.9514 5.02326 19.2417 5.02326 19.5349V22.3256H11.7209L20.093 13.9535V5.02326H17.3023C17.0091 5.02326 16.7188 4.96552 16.4479 4.85332C16.1771 4.74112 15.931 4.57667 15.7237 4.36936C15.5164 4.16205 15.3519 3.91592 15.2397 3.64506C15.1275 3.3742 15.0698 3.08389 15.0698 2.7907V0H8.37209L0 8.37209ZM9.48837 16.7442H5.5814V10.6047L10.6047 5.5814H14.5116V11.7209L9.48837 16.7442Z" fill="white"/>
<path d="M128.689 6.83496C130.099 6.83496 131.233 7.27031 132.089 8.14101C132.96 8.99792 133.395 10.2003 133.395 11.7482V18.4858H130.493V12.1421C130.493 11.2438 130.265 10.5596 129.809 10.0898C129.353 9.60601 128.731 9.36417 127.943 9.36417C127.155 9.36417 126.526 9.60601 126.056 10.0898C125.6 10.5596 125.373 11.2438 125.373 12.1421V18.4858H122.47V12.1421C122.47 11.2438 122.242 10.5596 121.786 10.0898C121.33 9.60601 120.708 9.36417 119.92 9.36417C119.119 9.36417 118.483 9.60601 118.013 10.0898C117.557 10.5596 117.329 11.2438 117.329 12.1421V18.4858H114.427V7.00078H117.329V8.38977C117.702 7.90609 118.179 7.52599 118.759 7.2496C119.354 6.97316 120.003 6.83496 120.708 6.83496C121.606 6.83496 122.408 7.02847 123.113 7.41543C123.818 7.7886 124.364 8.32759 124.75 9.03247C125.124 8.36906 125.663 7.83693 126.367 7.43613C127.086 7.03533 127.86 6.83496 128.689 6.83496Z" fill="white"/>
<path d="M112.288 7.00049V18.4855H109.365V17.0343C108.992 17.5319 108.501 17.9258 107.893 18.216C107.299 18.4924 106.649 18.6307 105.944 18.6307C105.046 18.6307 104.252 18.4441 103.561 18.0709C102.87 17.6839 102.324 17.1242 101.923 16.3917C101.536 15.6453 101.343 14.7609 101.343 13.7381V7.00049H104.245V13.3235C104.245 14.2357 104.473 14.9405 104.929 15.4381C105.385 15.9218 106.007 16.1636 106.794 16.1636C107.596 16.1636 108.225 15.9218 108.681 15.4381C109.138 14.9405 109.365 14.2357 109.365 13.3235V7.00049H112.288Z" fill="white"/>
<path d="M95.27 18.6722C94.3301 18.6722 93.4868 18.5063 92.7406 18.1746C91.9943 17.8291 91.3999 17.3661 90.9579 16.7856C90.5292 16.2052 90.2942 15.5625 90.2529 14.8576H93.1759C93.2312 15.2999 93.4455 15.6662 93.8189 15.9564C94.2057 16.2466 94.6823 16.3917 95.2488 16.3917C95.802 16.3917 96.2306 16.2812 96.5342 16.06C96.8524 15.8389 97.0114 15.5556 97.0114 15.2101C97.0114 14.8369 96.8178 14.5605 96.431 14.3808C96.0576 14.1874 95.4565 13.98 94.6271 13.7589C93.7703 13.5516 93.0654 13.3374 92.5128 13.1163C91.9737 12.8951 91.5037 12.5565 91.103 12.1004C90.7156 11.6443 90.5225 11.0293 90.5225 10.2553C90.5225 9.61962 90.7022 9.03916 91.0617 8.51395C91.4345 7.98874 91.9597 7.57415 92.6367 7.27008C93.3283 6.966 94.1365 6.81396 95.0624 6.81396C96.431 6.81396 97.5227 7.15951 98.3381 7.85054C99.1536 8.52779 99.6029 9.44682 99.6855 10.6078H96.9076C96.8663 10.1517 96.6726 9.79236 96.3272 9.52976C95.9956 9.25337 95.5463 9.11512 94.9798 9.11512C94.4546 9.11512 94.0466 9.2119 93.7564 9.40541C93.4801 9.59886 93.3417 9.86838 93.3417 10.2139C93.3417 10.6009 93.5353 10.898 93.9221 11.1053C94.3095 11.2988 94.9106 11.4992 95.726 11.7065C96.5549 11.9139 97.2392 12.1281 97.7783 12.3492C98.3175 12.5703 98.7802 12.9158 99.1675 13.3857C99.5683 13.8418 99.7753 14.4499 99.7893 15.2101C99.7893 15.8735 99.6029 16.4678 99.2295 16.993C98.87 17.5181 98.3448 17.9328 97.6539 18.2368C96.9768 18.5271 96.182 18.6722 95.27 18.6722Z" fill="white"/>
<path d="M80.4524 8.65906C80.8258 8.13385 81.337 7.6985 81.9867 7.35302C82.6498 6.99369 83.4033 6.81396 84.246 6.81396C85.2273 6.81396 86.1119 7.05586 86.9 7.5396C87.7015 8.02329 88.33 8.71432 88.7865 9.6127C89.2565 10.4972 89.4909 11.5268 89.4909 12.7016C89.4909 13.8764 89.2565 14.9198 88.7865 15.832C88.33 16.7304 87.7015 17.4283 86.9 17.9259C86.1119 18.4234 85.2273 18.6722 84.246 18.6722C83.4033 18.6722 82.657 18.4994 82.0073 18.1539C81.3716 17.8084 80.8531 17.373 80.4524 16.8479V23.9586H77.55V7.00055H80.4524V8.65906ZM86.5266 12.7016C86.5266 12.0106 86.3815 11.4163 86.0913 10.9187C85.815 10.4074 85.4416 10.0204 84.9716 9.75782C84.5156 9.49521 84.0183 9.36394 83.4792 9.36394C82.954 9.36394 82.4567 9.50213 81.9867 9.77852C81.5301 10.0411 81.1573 10.4281 80.8671 10.9395C80.5908 11.4508 80.4524 12.052 80.4524 12.7431C80.4524 13.4341 80.5908 14.0353 80.8671 14.5467C81.1573 15.0581 81.5301 15.452 81.9867 15.7283C82.4567 15.991 82.954 16.1223 83.4792 16.1223C84.0183 16.1223 84.5156 15.984 84.9716 15.7076C85.4416 15.4312 85.815 15.0373 86.0913 14.5259C86.3815 14.0146 86.5266 13.4065 86.5266 12.7016Z" fill="white"/>
<path d="M73.9775 5.63233C73.4663 5.63233 73.0382 5.47338 72.6927 5.1555C72.3606 4.82381 72.1948 4.4161 72.1948 3.93237C72.1948 3.44865 72.3606 3.04785 72.6927 2.72997C73.0382 2.39827 73.4663 2.23242 73.9775 2.23242C74.4893 2.23242 74.9107 2.39827 75.2423 2.72997C75.5878 3.04785 75.7608 3.44865 75.7608 3.93237C75.7608 4.4161 75.5878 4.82381 75.2423 5.1555C74.9107 5.47338 74.4893 5.63233 73.9775 5.63233ZM75.408 7.00055V18.4856H72.5057V7.00055H75.408Z" fill="white"/>
<path d="M65.1109 18.6722C64.0053 18.6722 63.0107 18.4303 62.126 17.9466C61.2414 17.449 60.5437 16.7511 60.0319 15.8528C59.5346 14.9544 59.2856 13.9179 59.2856 12.7431C59.2856 11.5683 59.5413 10.5318 60.0525 9.63341C60.5777 8.73508 61.2899 8.04405 62.188 7.56031C63.0866 7.06278 64.0884 6.81396 65.1941 6.81396C66.2998 6.81396 67.3016 7.06278 68.2002 7.56031C69.0983 8.04405 69.8032 8.73508 70.3145 9.63341C70.8397 10.5318 71.1026 11.5683 71.1026 12.7431C71.1026 13.9179 70.833 14.9544 70.2938 15.8528C69.7686 16.7511 69.0503 17.449 68.1377 17.9466C67.2397 18.4303 66.2306 18.6722 65.1109 18.6722ZM65.1109 16.143C65.6362 16.143 66.1268 16.0186 66.5833 15.7698C67.0533 15.5072 67.4261 15.1203 67.7024 14.6089C67.9792 14.0975 68.1171 13.4756 68.1171 12.7431C68.1171 11.6512 67.8269 10.8151 67.2464 10.2346C66.6799 9.64033 65.9816 9.34317 65.1528 9.34317C64.3234 9.34317 63.6257 9.64033 63.0587 10.2346C62.5061 10.8151 62.2298 11.6512 62.2298 12.7431C62.2298 13.8349 62.4989 14.678 63.038 15.2723C63.5911 15.8528 64.2821 16.143 65.1109 16.143Z" fill="white"/>
<path d="M52.6167 18.6722C51.511 18.6722 50.5159 18.4303 49.6314 17.9466C48.7469 17.449 48.0489 16.7511 47.5376 15.8528C47.04 14.9544 46.7913 13.9179 46.7913 12.7431C46.7913 11.5683 47.0469 10.5318 47.5583 9.63341C48.0835 8.73508 48.7953 8.04405 49.6936 7.56031C50.592 7.06278 51.5939 6.81396 52.6996 6.81396C53.8053 6.81396 54.8073 7.06278 55.7056 7.56031C56.6038 8.04405 57.3087 8.73508 57.82 9.63341C58.3452 10.5318 58.6081 11.5683 58.6081 12.7431C58.6081 13.9179 58.3385 14.9544 57.7993 15.8528C57.2741 16.7511 56.5558 17.449 55.6434 17.9466C54.7451 18.4303 53.7362 18.6722 52.6167 18.6722ZM52.6167 16.143C53.1419 16.143 53.6325 16.0186 54.0886 15.7698C54.5585 15.5072 54.9317 15.1203 55.2081 14.6089C55.4845 14.0975 55.6227 13.4756 55.6227 12.7431C55.6227 11.6512 55.3325 10.8151 54.752 10.2346C54.1853 9.64033 53.4874 9.34317 52.6581 9.34317C51.8289 9.34317 51.131 9.64033 50.5643 10.2346C50.0115 10.8151 49.7351 11.6512 49.7351 12.7431C49.7351 13.8349 50.0046 14.678 50.5436 15.2723C51.0964 15.8528 51.7874 16.143 52.6167 16.143Z" fill="white"/>
<path d="M40.122 18.6722C39.0164 18.6722 38.0213 18.4303 37.1368 17.9466C36.2522 17.449 35.5543 16.7511 35.0429 15.8528C34.5454 14.9544 34.2966 13.9179 34.2966 12.7431C34.2966 11.5683 34.5523 10.5318 35.0637 9.63341C35.5888 8.73508 36.3006 8.04405 37.199 7.56031C38.0973 7.06278 39.0993 6.81396 40.205 6.81396C41.3106 6.81396 42.3126 7.06278 43.211 7.56031C44.1093 8.04405 44.8142 8.73508 45.3255 9.63341C45.8507 10.5318 46.1133 11.5683 46.1133 12.7431C46.1133 13.9179 45.8438 14.9544 45.3048 15.8528C44.7796 16.7511 44.0609 17.449 43.1488 17.9466C42.2505 18.4303 41.2415 18.6722 40.122 18.6722ZM40.122 16.143C40.6473 16.143 41.1379 16.0186 41.594 15.7698C42.0639 15.5072 42.437 15.1203 42.7134 14.6089C42.9898 14.0975 43.1281 13.4756 43.1281 12.7431C43.1281 11.6512 42.8378 10.8151 42.2573 10.2346C41.6907 9.64033 40.9927 9.34317 40.1635 9.34317C39.3343 9.34317 38.6363 9.64033 38.0697 10.2346C37.5168 10.8151 37.2404 11.6512 37.2404 12.7431C37.2404 13.8349 37.5099 14.678 38.0489 15.2723C38.6018 15.8528 39.2928 16.143 40.122 16.143Z" fill="white"/>
<path d="M29.135 16.1848H33.9032V18.4859H26.2327V4.01562H29.135V16.1848Z" fill="white"/>
<path d="M47.5569 20.0284C48.2921 22.2147 50.3584 23.7896 52.7925 23.7896H53.0954C56.1454 23.7896 58.618 21.3171 58.618 18.2671V17.9551H55.6239V18.2671C55.6239 19.6636 54.4919 20.7956 53.0954 20.7956H52.7925C52.0808 20.7956 51.4378 20.5016 50.9783 20.0284H47.5569Z" fill="white"/>
</g>
<defs>
<clipPath id="clip0_2013_2550">
<rect width="133.395" height="24" fill="white"/>
</clipPath>
</defs>
</svg>
